<mxfile host="app.diagrams.net" modified="2024-06-24T05:10:36.012Z" agent="Mozilla/5.0 (Windows NT 10.0; Win64; x64) AppleWebKit/537.36 (KHTML, like Gecko) Chrome/125.0.0.0 Safari/537.36 Edg/125.0.0.0" etag="ugGm3Vy9g-X23Cz6CSnd" version="24.5.5" type="github">
  <diagram name="Page-1" id="pZf0SgRgjWfcSbcHpFyw">
    <mxGraphModel dx="979" dy="578" grid="1" gridSize="10" guides="1" tooltips="1" connect="1" arrows="1" fold="1" page="1" pageScale="1" pageWidth="850" pageHeight="1100" background="#000033" math="0" shadow="0">
      <root>
        <mxCell id="0" />
        <mxCell id="1" parent="0" />
        <mxCell id="E-Oqbn4rHq4keGE68agE-31" style="edgeStyle=orthogonalEdgeStyle;rounded=0;orthogonalLoop=1;jettySize=auto;html=1;exitX=0.5;exitY=1;exitDx=0;exitDy=0;entryX=0.5;entryY=0;entryDx=0;entryDy=0;strokeColor=#FFFFFF;endArrow=none;endFill=0;" edge="1" parent="1" source="E-Oqbn4rHq4keGE68agE-1" target="E-Oqbn4rHq4keGE68agE-2">
          <mxGeometry relative="1" as="geometry" />
        </mxCell>
        <mxCell id="E-Oqbn4rHq4keGE68agE-32" style="edgeStyle=orthogonalEdgeStyle;rounded=0;orthogonalLoop=1;jettySize=auto;html=1;exitX=0.5;exitY=1;exitDx=0;exitDy=0;entryX=0.5;entryY=0;entryDx=0;entryDy=0;strokeColor=#FFFFFF;endArrow=none;endFill=0;" edge="1" parent="1" source="E-Oqbn4rHq4keGE68agE-1" target="E-Oqbn4rHq4keGE68agE-3">
          <mxGeometry relative="1" as="geometry" />
        </mxCell>
        <mxCell id="E-Oqbn4rHq4keGE68agE-33" style="edgeStyle=orthogonalEdgeStyle;rounded=0;orthogonalLoop=1;jettySize=auto;html=1;exitX=0.5;exitY=1;exitDx=0;exitDy=0;entryX=0.5;entryY=0;entryDx=0;entryDy=0;strokeColor=#FFFFFF;endArrow=none;endFill=0;" edge="1" parent="1" source="E-Oqbn4rHq4keGE68agE-1" target="E-Oqbn4rHq4keGE68agE-5">
          <mxGeometry relative="1" as="geometry" />
        </mxCell>
        <mxCell id="E-Oqbn4rHq4keGE68agE-34" style="edgeStyle=orthogonalEdgeStyle;rounded=0;orthogonalLoop=1;jettySize=auto;html=1;exitX=0.5;exitY=1;exitDx=0;exitDy=0;entryX=0.5;entryY=0;entryDx=0;entryDy=0;strokeColor=#FFFFFF;endArrow=none;endFill=0;" edge="1" parent="1" source="E-Oqbn4rHq4keGE68agE-1" target="E-Oqbn4rHq4keGE68agE-4">
          <mxGeometry relative="1" as="geometry" />
        </mxCell>
        <mxCell id="E-Oqbn4rHq4keGE68agE-1" value="PT. TAZKO INDONESIA BERKAH&amp;nbsp;&lt;div&gt;(&lt;i&gt;Holding Company&lt;/i&gt;)&lt;/div&gt;" style="rounded=0;whiteSpace=wrap;html=1;strokeColor=#FFFFFF;fillColor=none;fontColor=#FFFFFF;" vertex="1" parent="1">
          <mxGeometry x="435" y="41" width="200" height="60" as="geometry" />
        </mxCell>
        <mxCell id="E-Oqbn4rHq4keGE68agE-2" value="&lt;font color=&quot;#ffffff&quot;&gt;Minimarket Tazko Point&amp;nbsp;&amp;nbsp;&lt;/font&gt;" style="rounded=0;whiteSpace=wrap;html=1;fillColor=none;strokeColor=#FFFFFF;perimeterSpacing=1;fillStyle=auto;" vertex="1" parent="1">
          <mxGeometry x="80" y="160" width="140" height="60" as="geometry" />
        </mxCell>
        <mxCell id="E-Oqbn4rHq4keGE68agE-3" value="AIST&amp;nbsp;&lt;div&gt;(Academic &lt;i&gt;Information System of Tazakka&lt;/i&gt;)&lt;/div&gt;" style="rounded=0;whiteSpace=wrap;html=1;fillColor=none;strokeColor=#FFFFFF;fontColor=#FFFFFF;" vertex="1" parent="1">
          <mxGeometry x="240" y="160" width="160" height="60" as="geometry" />
        </mxCell>
        <mxCell id="E-Oqbn4rHq4keGE68agE-7" value="" style="edgeStyle=orthogonalEdgeStyle;rounded=0;orthogonalLoop=1;jettySize=auto;html=1;" edge="1" parent="1" source="E-Oqbn4rHq4keGE68agE-4" target="E-Oqbn4rHq4keGE68agE-6">
          <mxGeometry relative="1" as="geometry" />
        </mxCell>
        <mxCell id="E-Oqbn4rHq4keGE68agE-4" value="Laundry &amp;amp; Konveksi" style="rounded=0;whiteSpace=wrap;html=1;fillColor=none;strokeColor=#FFFFFF;fontColor=#FFFFFF;" vertex="1" parent="1">
          <mxGeometry x="560" y="160" width="120" height="60" as="geometry" />
        </mxCell>
        <mxCell id="E-Oqbn4rHq4keGE68agE-26" style="edgeStyle=orthogonalEdgeStyle;rounded=0;orthogonalLoop=1;jettySize=auto;html=1;exitX=0.5;exitY=1;exitDx=0;exitDy=0;entryX=0;entryY=0.25;entryDx=0;entryDy=0;strokeColor=#FFFFFF;endArrow=none;endFill=0;" edge="1" parent="1" source="E-Oqbn4rHq4keGE68agE-5">
          <mxGeometry relative="1" as="geometry">
            <mxPoint x="420" y="302.5" as="targetPoint" />
            <Array as="points">
              <mxPoint x="480" y="302" />
            </Array>
          </mxGeometry>
        </mxCell>
        <mxCell id="E-Oqbn4rHq4keGE68agE-28" style="edgeStyle=orthogonalEdgeStyle;rounded=0;orthogonalLoop=1;jettySize=auto;html=1;exitX=0.5;exitY=1;exitDx=0;exitDy=0;entryX=1;entryY=0.5;entryDx=0;entryDy=0;strokeColor=#FFFFFF;endArrow=none;endFill=0;" edge="1" parent="1" source="E-Oqbn4rHq4keGE68agE-5" target="E-Oqbn4rHq4keGE68agE-17">
          <mxGeometry relative="1" as="geometry" />
        </mxCell>
        <mxCell id="E-Oqbn4rHq4keGE68agE-5" value="PT. AHER&amp;nbsp;&lt;div&gt;Ahsan Herbal Chicken&lt;/div&gt;" style="rounded=0;whiteSpace=wrap;html=1;fillColor=none;strokeColor=#FFFFFF;fontColor=#FFFFFF;" vertex="1" parent="1">
          <mxGeometry x="420" y="160" width="120" height="60" as="geometry" />
        </mxCell>
        <mxCell id="E-Oqbn4rHq4keGE68agE-35" style="edgeStyle=orthogonalEdgeStyle;rounded=0;orthogonalLoop=1;jettySize=auto;html=1;exitX=0.5;exitY=0;exitDx=0;exitDy=0;entryX=0.5;entryY=1;entryDx=0;entryDy=0;strokeColor=#FFFFFF;endArrow=none;endFill=0;" edge="1" parent="1" source="E-Oqbn4rHq4keGE68agE-6" target="E-Oqbn4rHq4keGE68agE-1">
          <mxGeometry relative="1" as="geometry" />
        </mxCell>
        <mxCell id="E-Oqbn4rHq4keGE68agE-6" value="Tazakka Publishing" style="whiteSpace=wrap;html=1;rounded=0;fillColor=none;strokeColor=#FFFFFF;fontColor=#FFFFFF;" vertex="1" parent="1">
          <mxGeometry x="702" y="160" width="120" height="60" as="geometry" />
        </mxCell>
        <mxCell id="E-Oqbn4rHq4keGE68agE-36" style="edgeStyle=orthogonalEdgeStyle;rounded=0;orthogonalLoop=1;jettySize=auto;html=1;exitX=0.5;exitY=0;exitDx=0;exitDy=0;entryX=0.5;entryY=1;entryDx=0;entryDy=0;strokeColor=#FFFFFF;endArrow=none;endFill=0;" edge="1" parent="1" source="E-Oqbn4rHq4keGE68agE-8" target="E-Oqbn4rHq4keGE68agE-1">
          <mxGeometry relative="1" as="geometry" />
        </mxCell>
        <mxCell id="E-Oqbn4rHq4keGE68agE-8" value="Partnership Wakaf Korporasi&amp;nbsp;" style="whiteSpace=wrap;html=1;rounded=0;fillColor=none;strokeColor=#FFFFFF;fontColor=#FFFFFF;" vertex="1" parent="1">
          <mxGeometry x="841" y="160" width="120" height="60" as="geometry" />
        </mxCell>
        <mxCell id="E-Oqbn4rHq4keGE68agE-16" value="Ahsan Resto&amp;nbsp;&lt;div&gt;Bandar&lt;/div&gt;" style="rounded=0;whiteSpace=wrap;html=1;fillColor=none;strokeColor=#FFFFFF;fontColor=#FFFFFF;" vertex="1" parent="1">
          <mxGeometry x="300" y="267" width="120" height="60" as="geometry" />
        </mxCell>
        <mxCell id="E-Oqbn4rHq4keGE68agE-17" value="MITRA UMKM ASFA&lt;div&gt;&lt;i&gt;Gerobak Ahsan Resto&lt;/i&gt;&lt;/div&gt;" style="rounded=0;whiteSpace=wrap;html=1;fillColor=none;strokeColor=#FFFFFF;fontColor=#FFFFFF;" vertex="1" parent="1">
          <mxGeometry x="300" y="338" width="120" height="60" as="geometry" />
        </mxCell>
        <mxCell id="E-Oqbn4rHq4keGE68agE-21" value="" style="edgeStyle=orthogonalEdgeStyle;rounded=0;orthogonalLoop=1;jettySize=auto;html=1;" edge="1" parent="1" source="E-Oqbn4rHq4keGE68agE-18" target="E-Oqbn4rHq4keGE68agE-20">
          <mxGeometry relative="1" as="geometry" />
        </mxCell>
        <mxCell id="E-Oqbn4rHq4keGE68agE-29" style="edgeStyle=orthogonalEdgeStyle;rounded=0;orthogonalLoop=1;jettySize=auto;html=1;exitX=0;exitY=0.5;exitDx=0;exitDy=0;entryX=0.5;entryY=1;entryDx=0;entryDy=0;strokeColor=#FFFFFF;endArrow=none;endFill=0;" edge="1" parent="1" source="E-Oqbn4rHq4keGE68agE-18" target="E-Oqbn4rHq4keGE68agE-5">
          <mxGeometry relative="1" as="geometry" />
        </mxCell>
        <mxCell id="E-Oqbn4rHq4keGE68agE-18" value="AHSAN BAKERY &amp;amp; CAKE&amp;nbsp;&lt;div&gt;&lt;i&gt;pabrik roti dan outlet&lt;/i&gt;&lt;/div&gt;" style="whiteSpace=wrap;html=1;fillColor=none;strokeColor=#FFFFFF;fontColor=#FFFFFF;rounded=0;" vertex="1" parent="1">
          <mxGeometry x="519" y="237" width="161" height="60" as="geometry" />
        </mxCell>
        <mxCell id="E-Oqbn4rHq4keGE68agE-30" style="edgeStyle=orthogonalEdgeStyle;rounded=0;orthogonalLoop=1;jettySize=auto;html=1;exitX=0;exitY=0.5;exitDx=0;exitDy=0;strokeColor=#FFFFFF;endArrow=none;endFill=0;" edge="1" parent="1" source="E-Oqbn4rHq4keGE68agE-20">
          <mxGeometry relative="1" as="geometry">
            <mxPoint x="480" y="220" as="targetPoint" />
          </mxGeometry>
        </mxCell>
        <mxCell id="E-Oqbn4rHq4keGE68agE-20" value="OPOR&lt;div&gt;&lt;i&gt;One pesantren One Resto&lt;/i&gt;&lt;/div&gt;" style="whiteSpace=wrap;html=1;fillColor=none;strokeColor=#FFFFFF;fontColor=#FFFFFF;rounded=0;" vertex="1" parent="1">
          <mxGeometry x="520" y="320" width="160" height="60" as="geometry" />
        </mxCell>
      </root>
    </mxGraphModel>
  </diagram>
</mxfile>
